<?xml version="1.0" standalone="no"?>
<!DOCTYPE svg PUBLIC "-//W3C//DTD SVG 20010904//EN"
 "http://www.w3.org/TR/2001/REC-SVG-20010904/DTD/svg10.dtd">
<svg version="1.0" xmlns="http://www.w3.org/2000/svg"
 width="1024.000000pt" height="768.000000pt" viewBox="0 0 1024.000000 768.000000"
 preserveAspectRatio="xMidYMid meet">

<g transform="translate(0.000000,768.000000) scale(0.100000,-0.100000)"
fill="#000000" stroke="none">
<path d="M0 3840 l0 -3840 5120 0 5120 0 0 1241 0 1241 -57 -6 c-205 -22 -372
-24 -385 -4 -6 10 -8 10 -9 -2 -1 -18 -49 79 -49 99 0 12 39 13 250 8 l250 -6
0 1600 c0 1064 -3 1598 -10 1594 -5 -3 -10 -12 -10 -19 0 -7 -6 -20 -13 -30
-11 -15 -18 -16 -34 -8 -16 9 -22 7 -33 -9 -8 -10 -25 -19 -37 -19 -13 0 -23
-5 -23 -11 0 -8 -19 -9 -63 -5 -34 4 -76 8 -94 9 -17 1 -31 4 -30 7 1 3 -4 15
-11 27 -13 24 -7 72 15 115 28 58 127 82 238 60 46 -10 62 -21 92 -68 9 -15
12 190 12 924 l1 942 -5120 0 -5120 0 0 -3840z m2997 3798 c26 -25 30 -50 8
-68 -18 -15 -52 -4 -66 21 -8 16 -7 26 6 45 19 29 23 30 52 2z m-1612 -86 c18
-13 32 -56 25 -82 -8 -32 -62 -40 -92 -13 -21 19 -19 62 3 90 12 14 48 17 64
5z m8264 -116 c15 -18 5 -40 -25 -57 -30 -16 -57 -3 -62 30 -5 33 64 55 87 27z
m-7151 -474 c7 -48 -56 -71 -76 -28 -9 21 -8 27 11 40 31 21 61 16 65 -12z
m3442 -164 c19 -9 52 -22 73 -29 21 -7 46 -21 57 -31 10 -10 44 -31 74 -47
l55 -30 33 40 c18 22 47 49 66 61 33 20 36 21 66 4 18 -9 40 -31 50 -47 10
-16 28 -41 42 -56 19 -21 24 -23 24 -9 0 15 6 16 33 11 17 -4 36 -11 41 -16 6
-5 34 -9 63 -9 29 0 53 -4 53 -10 0 -5 9 -10 19 -10 24 0 36 -16 19 -23 -7 -3
12 -6 43 -6 32 -1 63 -7 75 -16 18 -14 17 -14 -12 -15 -32 0 -74 -24 -62 -35
3 -4 18 1 33 11 19 12 48 18 95 18 63 1 71 -2 99 -28 17 -17 31 -35 31 -42 0
-7 5 -25 12 -40 14 -29 -5 -28 186 -8 49 5 63 3 101 -18 29 -16 53 -41 68 -69
14 -24 28 -48 32 -52 9 -9 120 -19 213 -18 44 1 85 -6 120 -19 61 -22 78 -51
78 -129 0 -52 17 -71 64 -71 20 0 36 -4 36 -9 0 -15 40 -20 68 -10 47 18 87 3
132 -51 31 -38 43 -61 50 -104 11 -68 3 -129 -16 -122 -7 3 -16 1 -19 -4 -4
-6 14 -10 43 -10 39 0 62 8 108 35 74 45 126 59 188 50 61 -8 96 -25 129 -65
36 -42 45 -83 37 -161 -13 -118 -77 -199 -155 -194 -21 1 -46 10 -56 18 -30
26 -96 57 -121 57 -33 0 -176 -29 -227 -45 -24 -8 -47 -13 -51 -10 -5 3 -11 1
-15 -5 -3 -5 -19 -10 -34 -10 -16 0 -49 -9 -73 -20 -48 -21 -147 -44 -240 -55
l-57 -6 -58 58 c-32 32 -72 74 -89 93 -198 220 -606 489 -1029 676 -59 26
-292 106 -395 135 -393 112 -917 171 -1239 140 -105 -10 -116 -9 -130 7 -18
19 -19 63 -2 105 6 16 11 35 11 44 0 13 -3 13 -16 2 -25 -20 -55 -21 -71 -2
-13 16 -13 16 -7 -7 7 -24 30 -49 47 -50 4 0 7 -16 7 -36 0 -19 4 -43 10 -53
8 -17 0 -20 -103 -35 -311 -47 -568 -120 -839 -236 -164 -71 -199 -87 -343
-160 -158 -79 -171 -87 -440 -266 -180 -120 -189 -127 -354 -271 -120 -106
-116 -105 -253 -72 l-87 22 -116 -27 c-132 -31 -103 -34 -430 30 -168 33 -259
46 -337 48 -59 1 -111 5 -114 9 -4 4 -1 7 7 7 11 0 11 2 -1 10 -8 5 -10 10 -4
10 7 0 13 24 16 58 7 96 63 152 152 152 47 0 66 16 66 56 0 9 12 33 26 52 25
32 30 34 73 30 41 -4 74 -17 148 -56 67 -35 66 -35 79 -17 7 9 16 36 19 58 10
57 18 69 59 91 l35 19 35 -27 c22 -16 36 -36 38 -54 l3 -27 100 -1 c56 0 106
-3 112 -7 10 -6 63 62 63 81 0 18 100 112 119 112 11 0 23 5 26 10 10 16 138
12 179 -5 20 -8 42 -24 48 -35 7 -11 21 -20 30 -20 10 0 18 -7 18 -15 0 -9 10
-15 23 -16 21 -1 21 -1 -3 -9 -17 -5 -6 -7 35 -6 40 1 73 -5 98 -17 49 -24 56
-17 17 17 -17 14 -29 26 -26 26 3 0 -1 19 -9 41 -18 49 -18 180 -2 226 16 43
61 91 93 99 26 7 104 -11 104 -24 0 -4 14 -22 30 -41 17 -18 30 -40 30 -47 0
-24 19 -15 34 15 17 31 60 48 81 31 18 -15 27 2 19 34 -7 28 68 191 92 200 8
3 14 12 14 21 0 12 11 14 59 11 107 -6 162 -64 114 -119 -17 -19 -17 -20 10
-15 15 3 27 2 27 -2 0 -4 11 -10 25 -12 28 -6 53 11 129 86 27 26 63 54 81 61
35 15 129 21 160 11 18 -6 20 -2 21 37 1 28 10 59 24 82 23 37 24 37 73 31 41
-4 57 -1 86 16 20 12 38 25 41 28 11 15 51 30 79 30 16 0 37 7 45 16 13 13 51
15 263 13 164 -1 253 -5 262 -12 16 -14 155 -11 159 3 5 15 41 12 58 -4 16
-17 19 -36 4 -36 -21 0 -9 -29 20 -50 17 -12 30 -30 30 -40 0 -19 13 -25 105
-47 115 -27 131 -28 140 -1 4 12 7 28 6 34 0 5 14 25 33 43 31 30 42 34 90 35
51 0 56 -2 93 -41 35 -37 56 -47 91 -44 6 0 12 6 12 11 0 10 80 112 104 135
44 39 118 44 186 13z m-840 -88 c0 -5 -2 -10 -4 -10 -3 0 -8 5 -11 10 -3 6 -1
10 4 10 6 0 11 -4 11 -10z m177 -76 c-3 -3 -12 -4 -19 -1 -8 3 -5 6 6 6 11 1
17 -2 13 -5z m-46 -244 c526 -41 885 -139 1354 -370 319 -158 558 -320 749
-508 88 -87 216 -241 216 -260 0 -16 26 -21 62 -11 18 5 87 20 153 35 66 14
209 48 318 75 110 28 200 49 201 47 2 -2 24 -84 50 -183 65 -246 172 -611 221
-750 7 -22 41 -128 75 -235 34 -107 75 -238 92 -290 34 -106 65 -209 77 -257
8 -29 7 -31 -13 -24 -20 8 -172 -10 -208 -24 -25 -10 -22 -23 5 -28 22 -3 21
-4 -4 -14 -21 -9 -26 -17 -22 -37 6 -28 22 -33 118 -39 47 -3 47 -3 -12 -5
-68 -2 -93 -9 -93 -25 0 -7 45 -8 138 -4 77 3 128 2 117 -3 -11 -5 -56 -9
-100 -10 -95 -3 -137 -11 -143 -27 -2 -9 8 -13 30 -14 l33 -1 -30 -7 c-44 -9
-37 -25 15 -32 33 -4 37 -6 15 -8 -16 -1 -36 -5 -43 -10 -24 -14 15 -18 162
-14 134 3 138 3 133 -16 -3 -11 -1 -21 3 -23 4 -2 11 -13 14 -25 6 -19 4 -23
-16 -23 -45 -1 -226 -19 -252 -26 -14 -3 -23 -10 -21 -15 3 -4 11 -6 18 -4 27
8 237 15 237 7 0 -4 -56 -14 -125 -20 -135 -14 -158 -19 -149 -33 3 -5 55 -7
117 -4 81 3 101 2 72 -5 -22 -5 -59 -9 -82 -9 -24 -1 -43 -5 -43 -11 0 -6 32
-8 80 -6 43 1 85 -1 92 -6 7 -4 -35 -8 -94 -8 -89 0 -108 -3 -108 -15 0 -11
12 -15 43 -16 l42 -1 -45 -10 c-41 -9 -43 -11 -25 -24 10 -8 23 -14 28 -14 5
0 4 -6 -2 -13 -6 -8 -8 -17 -4 -20 3 -4 67 -8 142 -9 l136 -1 -115 -7 c-130
-8 -120 -7 -120 -20 0 -5 12 -10 28 -10 19 0 23 -3 13 -9 -13 -9 69 -18 213
-24 l58 -2 54 -165 c30 -91 65 -200 78 -243 l25 -78 -27 5 c-15 3 -103 10
-197 16 -93 5 -195 13 -225 15 -79 8 -157 14 -395 30 -115 8 -286 21 -380 30
-93 8 -244 22 -335 30 -281 26 -484 35 -780 35 -431 0 -618 -16 -900 -75 -241
-50 -552 -173 -737 -292 -108 -69 -203 -175 -203 -227 0 -8 -5 -18 -11 -22 -8
-4 -9 46 -4 182 7 186 8 189 34 217 138 150 576 306 1053 378 260 38 1300 37
1324 -3 3 -4 -5 -8 -17 -8 -12 0 -20 -3 -16 -6 21 -21 143 -31 667 -53 135 -6
316 -16 404 -21 87 -6 160 -9 162 -7 6 5 -39 225 -77 382 -37 154 -70 280 -78
305 -5 14 -16 52 -26 85 -9 33 -22 78 -29 100 -8 22 -24 76 -36 120 -12 44
-28 86 -34 94 -15 19 -496 10 -541 -10 l-29 -14 34 -6 c50 -8 -272 -3 -355 6
-38 4 -125 18 -193 31 -195 38 -203 27 -12 -15 124 -28 249 -41 384 -41 143 0
129 -16 -26 -30 -78 -7 -161 -7 -250 0 -322 24 -751 41 -863 36 -307 -16 -671
-83 -892 -165 -192 -71 -447 -204 -591 -307 -12 -9 -26 -13 -30 -9 -9 10 94
103 188 169 151 106 325 195 590 303 265 108 342 126 630 148 36 3 169 5 295
5 186 1 257 -3 370 -20 91 -14 241 -26 430 -34 l290 -11 65 23 c60 22 81 24
263 26 164 1 199 -1 207 -14 5 -8 12 -12 15 -9 5 6 -3 42 -40 172 -34 120 -67
244 -75 277 -5 19 -15 60 -23 90 -9 30 -20 75 -25 100 -13 60 -66 258 -106
400 -18 63 -43 165 -56 225 -28 140 -27 135 -45 135 -18 0 -352 -86 -389 -100
-33 -12 -32 -3 3 38 19 22 27 41 24 53 -4 14 -9 17 -16 10 -16 -16 -39 2 -102
81 -108 134 -179 210 -260 277 -355 292 -916 565 -1390 676 -317 75 -679 107
-960 86 -381 -29 -632 -88 -1025 -241 -501 -196 -1119 -613 -1297 -875 -64
-95 -55 -92 -196 -66 -67 13 -160 30 -207 38 -480 81 -499 83 -508 56 -5 -17
0 -18 153 -38 119 -15 541 -89 574 -101 8 -2 12 -7 9 -9 -4 -4 -95 10 -355 56
-65 11 -152 24 -193 29 -41 5 -97 15 -123 21 -29 7 -52 8 -58 2 -5 -5 -13 -33
-19 -63 -6 -30 -14 -56 -19 -59 -5 -4 -11 -17 -12 -31 -3 -20 3 -29 28 -42 18
-10 43 -18 55 -18 13 -1 37 -7 53 -15 l30 -13 -30 0 c-16 -1 -55 3 -85 7 -71
11 -82 6 -78 -33 3 -29 6 -31 53 -37 35 -4 40 -6 18 -7 -34 -2 -56 -21 -26
-23 10 -1 0 -5 -22 -8 -28 -4 -41 -11 -43 -25 -3 -14 0 -17 11 -13 8 3 69 -2
134 -13 65 -10 192 -27 283 -39 259 -34 309 -41 410 -57 52 -8 215 -25 362
-39 147 -13 276 -29 287 -35 11 -5 111 -13 223 -17 112 -3 214 -10 228 -14 40
-13 -551 3 -725 19 -85 8 -104 8 -94 -2 3 -3 56 -10 119 -16 152 -14 180 -19
180 -30 0 -18 -229 -11 -350 10 -162 28 -341 70 -335 80 3 4 22 4 42 -1 21 -5
54 -8 73 -7 33 1 32 1 -10 8 -25 4 -133 24 -240 43 -244 45 -561 97 -588 97
-17 0 -23 -11 -36 -67 -8 -37 -14 -68 -13 -69 1 -1 62 -4 136 -7 84 -4 138
-11 145 -18 8 -9 8 -10 -1 -5 -7 4 -13 2 -13 -3 0 -6 16 -11 35 -11 42 0 263
-48 285 -62 11 -7 8 -8 -10 -4 -14 4 -83 15 -155 26 -71 11 -174 26 -228 34
-53 8 -101 17 -106 20 -4 3 -28 7 -54 10 l-45 4 -15 -59 c-8 -32 -11 -59 -5
-59 5 0 -1 -10 -12 -22 -11 -12 -18 -29 -15 -36 3 -8 1 -20 -4 -26 -9 -11 -25
-76 -19 -76 2 0 73 -9 158 -20 176 -23 340 -25 385 -6 l30 13 -70 16 c-38 9
-117 23 -175 33 -58 9 -136 22 -175 30 l-70 13 65 -5 c133 -11 398 -46 680
-89 212 -33 275 -41 580 -75 146 -17 346 -46 445 -64 99 -19 223 -41 275 -50
367 -60 429 -75 598 -147 112 -48 168 -78 248 -134 101 -72 109 -98 16 -51
-70 35 -226 92 -318 115 -322 82 -697 157 -904 181 -96 11 -251 31 -345 45
-206 31 -336 49 -520 70 -77 9 -178 22 -225 30 -79 13 -393 47 -590 64 -50 5
-90 4 -97 -2 -7 -5 -15 -25 -19 -46 -3 -20 -11 -52 -17 -71 -7 -19 -12 -39
-13 -45 -2 -23 -16 -71 -25 -87 -5 -10 -9 -26 -9 -37 0 -10 -7 -32 -15 -47 -8
-16 -15 -37 -15 -47 0 -10 -5 -27 -10 -37 -6 -10 -16 -47 -24 -82 -8 -35 -29
-110 -46 -168 -18 -58 -36 -121 -40 -141 -3 -19 -14 -48 -23 -65 -8 -16 -24
-48 -34 -71 -10 -23 -22 -43 -27 -43 -5 0 -14 -7 -20 -16 -10 -13 -17 -14 -54
-2 -23 7 -42 18 -42 25 0 9 -22 12 -76 11 -56 -1 -78 2 -85 13 -7 11 -9 11 -9
-3 0 -10 -4 -18 -10 -18 -11 0 -14 33 -3 44 4 3 8 16 10 28 2 12 30 107 62
212 32 105 82 270 111 366 55 186 124 409 195 630 24 74 71 223 105 330 34
107 79 245 99 305 l36 110 48 -2 c26 -2 139 -21 250 -43 111 -22 247 -49 302
-60 139 -28 373 -43 430 -29 36 9 68 33 167 126 240 223 516 411 918 621 543
285 1148 416 1721 372z m586 -200 c43 -19 45 -22 39 -52 -9 -45 -22 -55 -43
-35 -10 8 -46 23 -80 33 -58 16 -64 16 -87 0 -53 -34 -27 -78 77 -132 86 -44
130 -124 102 -190 -39 -93 -264 -76 -332 26 -25 36 -27 48 -13 70 8 13 14 10
37 -16 64 -71 149 -102 197 -71 57 38 41 84 -44 127 -122 61 -161 123 -126
197 34 72 161 93 273 43z m-821 -26 c19 -19 34 -42 34 -49 0 -24 -22 -28 -39
-7 -9 11 -28 24 -43 27 -22 6 -33 1 -59 -25 l-32 -31 8 -82 c4 -45 7 -93 8
-106 2 -18 -5 -26 -26 -33 -50 -17 -53 -10 -61 131 -4 73 -11 142 -16 155 -5
15 -5 27 3 35 15 15 74 14 79 -1 3 -8 11 -7 28 5 40 28 78 22 116 -19z m352
-4 c47 -33 57 -50 67 -103 9 -49 3 -51 -135 -40 -127 10 -135 6 -107 -53 20
-41 70 -74 112 -74 17 0 50 12 74 25 34 20 46 23 53 13 11 -19 10 -22 -12 -51
-49 -63 -199 -51 -261 19 -72 82 -62 214 20 270 54 36 134 34 189 -6z m-628
-31 c0 -22 7 -85 16 -142 23 -145 23 -141 -9 -145 -18 -2 -29 2 -33 12 -8 21
-21 20 -51 -4 -40 -31 -89 -26 -127 13 -26 26 -36 48 -50 117 -10 47 -25 97
-33 113 -13 26 -12 28 12 37 33 13 62 13 70 0 3 -5 13 -48 21 -95 18 -107 27
-131 54 -145 17 -9 26 -8 46 5 20 13 24 23 24 68 0 54 -13 149 -25 179 -5 13
1 19 27 26 47 13 58 5 58 -39z m-500 22 c5 -11 10 -29 10 -40 0 -25 17 -36 33
-22 22 18 63 29 76 21 21 -12 3 -47 -35 -71 -38 -23 -38 -25 -2 -111 23 -53
46 -66 89 -47 26 10 33 9 46 -4 15 -14 15 -18 0 -41 -23 -34 -86 -51 -132 -36
-40 13 -67 52 -92 133 -17 57 -18 58 -49 52 -24 -4 -33 -1 -38 11 -11 28 -6
42 14 49 19 6 20 12 14 52 -6 38 -4 49 12 60 25 18 42 16 54 -6z m1864 -77
c-1 -16 -3 -40 -5 -53 -3 -20 1 -26 31 -33 55 -15 65 -29 46 -67 l-17 -31 -39
20 c-33 17 -70 26 -70 18 0 -2 -11 -36 -25 -77 -26 -77 -25 -110 3 -112 9 -1
28 -2 42 -2 19 -2 26 -8 28 -29 7 -61 -95 -63 -156 -2 -40 40 -39 55 4 157 41
99 41 94 -6 107 -34 9 -41 15 -38 33 3 20 9 22 57 22 53 0 53 0 69 40 19 48
28 56 56 45 15 -5 21 -16 20 -36z m-2048 -93 c23 -10 54 -36 70 -57 25 -32 29
-46 29 -103 0 -53 -5 -72 -23 -99 -28 -39 -85 -65 -124 -57 -35 8 -35 0 -2
-48 14 -21 32 -54 40 -73 12 -28 19 -34 32 -28 9 4 27 7 40 7 20 -1 51 28 77
71 25 42 353 121 648 157 142 17 451 7 602 -20 501 -89 893 -256 1236 -526 94
-74 318 -297 354 -353 27 -41 27 -43 10 -62 -25 -28 -36 -25 -65 18 -39 58
-274 290 -380 374 -301 240 -616 376 -1089 473 -243 49 -537 57 -776 20 -210
-32 -492 -120 -690 -215 -372 -178 -498 -262 -752 -503 -62 -59 -115 -107
-118 -107 -16 0 -45 22 -45 34 0 33 320 311 462 403 94 59 250 141 328 170 86
33 85 32 57 62 -26 27 -93 140 -149 251 -24 47 -39 66 -55 68 -24 3 -31 34
-15 59 14 22 201 101 242 102 8 0 34 -8 56 -18z m2254 -50 l25 -19 -34 -74
c-66 -143 -65 -182 4 -215 34 -16 36 -16 63 3 33 24 56 69 76 148 9 32 18 62
22 65 7 8 76 -33 88 -52 8 -12 4 -23 -15 -44 -15 -15 -31 -43 -37 -60 -17 -50
-71 -123 -99 -134 -80 -30 -205 32 -233 117 -18 54 17 165 82 257 23 32 25 32
58 8z m-2766 -47 c22 -22 20 -37 -9 -64 l-25 -23 -25 23 c-30 28 -31 34 -5 60
24 24 43 25 64 4z m132 -156 c32 -40 75 -94 96 -120 21 -26 38 -51 38 -57 0
-13 -78 -71 -95 -71 -7 0 -20 21 -30 48 -19 52 -68 134 -91 153 -11 9 -18 8
-32 -5 -10 -9 -22 -16 -25 -16 -8 0 -47 60 -47 72 0 13 85 67 107 68 16 0 39
-21 79 -72z m3298 -7 c20 -22 15 -37 -34 -111 -21 -30 -49 -75 -63 -101 -14
-25 -46 -73 -72 -107 -37 -49 -46 -68 -43 -94 4 -45 -15 -45 -52 2 -18 22 -40
40 -51 40 -41 0 -108 51 -135 102 -18 34 -18 99 0 142 26 62 102 116 163 116
45 -1 112 -36 131 -70 9 -16 20 -30 23 -30 6 0 35 41 73 103 19 32 36 34 60 8z
m-3540 -33 c23 -32 20 -51 -14 -83 -16 -16 -30 -35 -30 -43 0 -7 37 -52 82
-99 l82 -86 -30 -23 c-16 -13 -31 -24 -35 -24 -10 0 -239 237 -239 248 0 6 15
21 33 33 17 13 51 40 74 61 49 44 56 46 77 16z m5774 -118 c7 0 12 -5 12 -10
0 -14 -32 3 -51 27 -13 17 -13 17 7 1 11 -10 26 -18 32 -18z m-98 1 c0 -12
-20 -25 -27 -18 -7 7 6 27 18 27 5 0 9 -4 9 -9z m-1947 -22 c8 -13 0 -29 -40
-75 -28 -33 -91 -110 -140 -173 -48 -63 -96 -119 -105 -125 -14 -8 -23 -5 -48
19 -34 33 -37 47 -13 66 9 8 48 50 86 94 139 160 199 216 225 213 14 -2 30
-10 35 -19z m1991 6 c3 -8 1 -15 -4 -15 -6 0 -10 7 -10 15 0 8 2 15 4 15 2 0
6 -7 10 -15z m-3842 -10 c298 -37 584 -120 822 -240 128 -64 324 -182 325
-196 1 -3 -34 -11 -76 -18 -167 -27 -541 -131 -728 -202 -213 -80 -506 -236
-673 -357 -43 -31 -99 -71 -126 -89 l-49 -33 -36 27 c-32 24 -148 120 -161
133 -35 35 -232 152 -317 188 -167 71 -478 155 -673 183 l-84 12 49 45 c134
121 286 220 485 316 425 204 838 281 1242 231z m3942 -13 c15 -18 15 -21 -9
-48 l-25 -29 0 28 c0 15 5 27 11 27 5 0 8 4 5 9 -3 4 -17 6 -31 3 -22 -4 -25
-10 -25 -43 0 -32 3 -39 20 -39 12 0 20 -7 20 -17 0 -10 3 -28 6 -39 5 -18 0
-23 -28 -28 -18 -4 -45 -9 -60 -12 -15 -4 -39 -3 -53 0 -22 6 -25 12 -25 51 0
41 2 45 25 45 23 0 25 4 25 40 0 38 6 45 36 41 6 -1 26 5 45 13 43 19 43 19
63 -2z m-2814 -14 c0 -19 -2 -20 -10 -8 -13 19 -13 30 0 30 6 0 10 -10 10 -22z
m-3242 -4 c29 -20 28 -44 0 -44 -50 -1 -108 -59 -108 -108 0 -35 28 -89 56
-107 33 -21 97 -22 129 -1 14 9 34 35 45 57 24 46 49 49 64 6 14 -38 -13 -90
-65 -124 -36 -24 -53 -28 -110 -28 -59 0 -73 4 -111 30 -119 84 -119 252 0
314 45 25 71 26 100 5z m6067 -73 c-3 -6 -11 -11 -16 -11 -5 0 -4 6 3 14 14
16 24 13 13 -3z m-6912 -82 c22 -6 37 -13 34 -15 -8 -8 -187 8 -187 17 0 13
107 11 153 -2z m4921 -70 c83 -50 106 -152 51 -229 -58 -82 -171 -138 -239
-119 -35 10 -82 53 -103 93 -25 48 -14 137 23 183 79 97 181 124 268 72z
m-4426 5 c12 -8 22 -19 22 -24 0 -4 -25 -22 -55 -39 -70 -40 -95 -90 -56 -111
15 -8 33 -2 87 30 56 33 78 40 121 40 44 0 58 -5 88 -31 48 -43 63 -98 37
-147 -27 -53 -82 -93 -134 -99 -81 -9 -89 55 -9 77 84 22 105 107 31 125 -19
5 -41 -4 -89 -35 -73 -47 -117 -58 -160 -40 -101 42 -76 196 41 253 41 21 48
21 76 1z m-1691 -76 c-3 -8 -6 -5 -6 6 -1 11 2 17 5 13 3 -3 4 -12 1 -19z
m8139 -1 c115 -38 168 -114 133 -191 -13 -28 -35 -36 -106 -36 -57 0 -115 17
-208 61 -33 15 -94 35 -135 44 -109 25 -140 41 -140 75 0 58 46 70 255 66 106
-2 165 -7 201 -19z m-8159 -39 c-3 -8 -6 -5 -6 6 -1 11 2 17 5 13 3 -3 4 -12
1 -19z m7513 -21 c0 -8 3 -7 9 2 7 10 9 7 8 -11 -2 -21 -5 -23 -19 -14 -10 6
-18 16 -18 23 0 7 -4 13 -10 13 -5 0 -10 5 -10 10 0 7 6 7 20 0 11 -6 20 -16
20 -23z m-7523 -29 c-3 -7 -5 -2 -5 12 0 14 2 19 5 13 2 -7 2 -19 0 -25z
m6783 23 c-8 -5 -44 -14 -80 -21 -36 -6 -85 -17 -110 -25 -85 -24 -258 -65
-276 -65 -42 1 16 19 176 55 91 21 188 44 215 51 61 15 98 18 75 5z m-6797
-71 c-3 -12 -8 -19 -11 -16 -5 6 5 36 12 36 2 0 2 -9 -1 -20z m6867 -10 c0 -5
-3 -10 -7 -10 -12 0 -444 -71 -518 -84 -38 -8 -72 -12 -74 -10 -16 14 37 29
176 49 87 13 181 29 208 35 42 10 80 15 203 29 6 0 12 -3 12 -9z m1760 -35
c58 -30 89 -64 96 -106 5 -29 1 -39 -29 -68 -31 -29 -44 -34 -99 -38 -70 -6
-135 8 -164 34 -27 25 -54 77 -54 103 0 28 39 92 51 84 5 -3 19 2 30 10 29 20
109 11 169 -19z m-7855 15 c27 -7 27 -8 5 -8 -14 0 -38 4 -55 8 -27 7 -27 8
-5 8 14 0 39 -4 55 -8z m462 -6 c-3 -3 -12 -4 -19 -1 -8 3 -5 6 6 6 11 1 17
-2 13 -5z m-377 -14 c11 -8 7 -9 -15 -4 -37 8 -45 14 -19 14 10 0 26 -5 34
-10z m417 4 c-3 -3 -12 -4 -19 -1 -8 3 -5 6 6 6 11 1 17 -2 13 -5z m4206 -20
c21 -14 37 -27 35 -30 -2 -2 -29 -10 -59 -19 l-54 -15 81 5 c71 5 83 4 105
-14 l24 -20 -62 -1 c-110 0 -484 -59 -643 -101 -245 -65 -568 -188 -745 -285
-219 -120 -365 -226 -386 -281 -12 -31 -11 -272 1 -843 14 -682 20 -1419 10
-1425 -4 -3 -11 12 -15 33 -12 65 -56 142 -114 201 -110 110 -385 272 -571
335 -150 50 -385 99 -610 126 -52 6 -126 16 -165 22 -203 29 -1434 10 -2050
-31 -202 -13 -834 -35 -840 -29 -3 3 1 20 9 39 9 19 15 26 16 17 0 -10 4 -18
9 -18 5 0 7 20 5 44 -4 34 -2 45 12 50 9 3 14 12 10 21 -3 8 -1 25 5 37 9 22
9 21 6 -4 -5 -32 12 -38 20 -8 3 11 10 20 15 20 6 0 8 11 6 25 -5 22 -2 24 18
19 15 -4 24 -2 24 5 0 17 83 52 136 57 52 6 124 50 124 76 0 11 7 18 20 18 11
0 20 4 20 9 0 5 7 11 14 14 10 4 13 1 9 -9 -5 -15 8 -19 21 -6 12 12 48 14
336 19 672 12 1542 -50 2200 -157 391 -64 576 -116 780 -221 126 -64 192 -118
287 -233 43 -52 84 -95 91 -95 9 -1 12 195 12 947 l0 948 -97 97 c-196 196
-400 302 -743 387 -177 43 -316 65 -487 76 -62 3 -113 10 -113 14 0 14 60 60
87 66 58 15 283 -12 468 -56 311 -74 506 -177 783 -417 62 -54 122 -101 133
-105 36 -14 67 2 146 74 288 258 888 510 1487 623 154 30 145 30 189 -1z
m-5506 -26 c-3 -7 -5 -2 -5 12 0 14 2 19 5 13 2 -7 2 -19 0 -25z m1018 22 c22
-5 76 -14 120 -20 44 -6 94 -15 110 -20 17 -5 53 -17 82 -25 51 -16 67 -32 54
-54 -8 -12 -232 44 -391 98 -71 25 -79 30 -50 30 19 0 53 -4 75 -9z m305 -40
c18 -12 2 -12 -25 0 -13 6 -15 9 -5 9 8 0 22 -4 30 -9z m-295 -45 c302 -64
359 -73 435 -73 48 -1 111 -10 175 -26 55 -14 113 -25 130 -25 27 2 27 2 5 6
-36 7 -50 23 -19 23 38 0 258 -30 309 -42 25 -6 90 -16 145 -23 127 -16 58
-18 -130 -5 -71 5 -188 12 -260 16 -71 3 -166 12 -210 19 -44 7 -82 9 -85 4
-3 -4 -42 -2 -85 6 -44 8 -156 29 -250 45 -181 33 -333 68 -430 100 l-60 19
80 -4 c44 -3 157 -21 250 -40z m6622 -7 c-3 -8 -6 -5 -6 6 -1 11 2 17 5 13 3
-3 4 -12 1 -19z m-7667 4 c0 -5 -6 -17 -14 -27 -13 -18 -14 -18 -9 8 5 24 23
39 23 19z m1445 -50 c-3 -3 -11 0 -18 7 -9 10 -8 11 6 5 10 -3 15 -9 12 -12z
m-510 -44 c116 -37 99 -49 -36 -24 -320 58 -348 68 -184 61 100 -3 137 -10
220 -37z m5953 28 c1 -2 -2 -14 -7 -28 -25 -66 -261 -111 -646 -125 -226 -7
-209 10 25 27 185 12 327 30 450 57 160 35 89 43 -170 19 -241 -23 -404 -30
-397 -19 4 6 42 14 84 17 123 10 482 47 548 56 52 7 104 5 113 -4z m-1134 -17
c16 -15 3 -17 -54 -8 -30 4 -113 9 -185 10 -84 1 -116 4 -90 9 53 9 318 0 329
-11z m2415 -17 c55 -27 78 -27 116 -2 35 23 85 26 124 6 66 -35 120 -132 105
-191 -6 -25 -108 -135 -126 -135 -4 0 -27 12 -51 27 -60 38 -182 45 -252 14
-57 -25 -95 -27 -95 -5 0 8 -5 12 -11 8 -8 -4 -9 0 -4 15 10 31 -4 84 -20 77
-9 -3 -12 0 -8 11 3 8 0 19 -8 23 -8 6 -16 35 -19 75 -8 93 9 106 135 101 47
-2 84 -10 114 -24z m-8203 -19 c-11 -11 -17 4 -9 23 7 18 8 18 11 1 2 -10 1
-21 -2 -24z m-421 17 c3 -5 1 -10 -4 -10 -6 0 -11 5 -11 10 0 6 2 10 4 10 3 0
8 -4 11 -10z m5953 -27 c-10 -2 -28 -2 -40 0 -13 2 -5 4 17 4 22 1 32 -1 23
-4z m175 0 c-23 -2 -64 -2 -90 0 -26 2 -7 3 42 3 50 0 71 -1 48 -3z m-4108
-48 c77 -8 185 -22 240 -30 55 -9 107 -16 115 -16 24 0 285 -19 410 -30 119
-11 260 -37 205 -38 -16 0 -127 9 -245 20 -118 11 -258 24 -310 29 -235 20
-565 61 -574 70 -13 13 -13 13 159 -5z m-1632 -38 c-3 -20 -9 -37 -14 -37 -5
0 -7 6 -5 13 3 6 7 25 11 41 9 40 16 27 8 -17z m2556 22 c31 -9 -63 -1 -124
12 -28 5 -19 6 29 2 39 -3 81 -9 95 -14z m2981 -39 c95 -12 130 -20 130 -28 0
-4 -118 -20 -263 -35 -426 -47 -570 -77 -882 -187 -69 -24 -255 -114 -332
-159 -77 -46 -65 -18 15 33 248 161 618 296 881 322 108 10 191 26 238 44 54
21 104 24 213 10z m2309 -84 c0 -12 -7 -1 -15 24 -18 58 -17 74 1 31 8 -18 15
-43 14 -55z m-6874 39 c55 -7 143 -22 195 -33 52 -11 129 -26 170 -33 41 -7
67 -15 58 -17 -25 -5 -245 26 -313 44 -33 9 -105 24 -160 34 -120 22 -90 25
50 5z m5539 -14 c18 -7 18 -8 -5 -14 -13 -4 -123 -9 -244 -11 -231 -5 -233 5
-5 22 149 12 230 12 254 3z m-575 -7 c33 -4 61 -10 61 -14 0 -14 -65 -19 -340
-26 -210 -5 -272 -4 -264 5 29 31 371 53 543 35z m2921 -4 c0 -5 -19 -9 -42
-9 l-43 2 40 7 c22 4 41 8 43 9 1 0 2 -3 2 -9z m-8854 -51 c-18 -41 -21 -26
-4 22 6 18 13 29 15 23 2 -6 -3 -26 -11 -45z m8897 44 c-7 -2 -19 -2 -25 0 -7
3 -2 5 12 5 14 0 19 -2 13 -5z m2 -23 c4 -6 -9 -10 -32 -9 -30 0 -34 2 -18 9
27 12 43 12 50 0z m-3547 -17 c-10 -2 -26 -2 -35 0 -10 3 -2 5 17 5 19 0 27
-2 18 -5z m1571 -9 c9 -3 2 -15 -23 -38 -46 -44 -47 -44 -676 -49 -317 -3
-459 -1 -395 5 126 10 287 32 435 58 156 27 599 44 659 24z m-5649 -19 c52 -8
151 -23 220 -34 165 -26 290 -38 512 -51 293 -16 440 -36 773 -106 225 -47
318 -76 450 -138 164 -78 290 -167 355 -252 49 -63 47 -60 25 -44 -11 8 -46
36 -78 62 -213 175 -529 307 -792 332 -44 4 -15 -6 110 -38 94 -24 181 -49
195 -55 l25 -12 -25 6 c-14 3 -68 15 -120 25 -188 39 -325 73 -340 85 -15 13
-192 39 -335 50 -114 9 -416 51 -580 81 -150 27 -274 49 -370 65 -33 5 -73 14
-90 19 -16 5 -46 13 -65 19 l-35 10 35 -5 c19 -2 78 -11 130 -19z m4688 16
c23 -14 -52 -21 -235 -21 -99 0 -174 4 -178 10 -9 15 389 27 413 11z m1891
-35 c-9 -8 -10 -7 -5 7 3 10 7 24 7 30 1 7 3 4 6 -7 3 -10 -1 -23 -8 -30z
m859 37 c-10 -2 -26 -2 -35 0 -10 3 -2 5 17 5 19 0 27 -2 18 -5z m89 1 c-3 -3
-12 -4 -19 -1 -8 3 -5 6 6 6 11 1 17 -2 13 -5z m151 -1 c-10 -2 -26 -2 -35 0
-10 3 -2 5 17 5 19 0 27 -2 18 -5z m-6157 -37 c184 -37 463 -126 447 -142 -3
-2 -21 3 -41 11 -74 31 -59 13 20 -25 115 -54 224 -132 294 -209 61 -68 76
-96 37 -67 -123 88 -297 182 -439 235 -142 53 -410 118 -631 152 -124 19 -96
33 50 25 70 -4 138 -9 152 -12 l25 -4 -25 12 c-16 8 -90 12 -213 14 -103 1
-190 4 -193 7 -3 3 43 8 103 11 59 4 119 8 133 10 79 10 178 3 281 -18z
m-2211 5 l45 -8 -40 -1 c-22 0 -53 4 -70 8 -27 7 -28 8 -5 8 14 0 45 -3 70 -7z
m1227 3 c-3 -3 -12 -4 -19 -1 -8 3 -5 6 6 6 11 1 17 -2 13 -5z m-1077 -24 c24
-8 24 -8 -5 -8 -16 0 -39 3 -50 8 -18 8 -18 9 5 8 14 0 36 -4 50 -8z m4580 -5
c-30 -7 -82 -16 -115 -20 -89 -10 -273 -67 -499 -155 -263 -102 -377 -142
-385 -134 -3 3 10 19 29 35 l35 29 -30 -6 c-16 -4 -38 -11 -47 -15 -27 -14
-45 -10 -23 4 37 25 310 145 376 165 36 11 116 25 178 31 107 11 176 22 376
61 50 10 106 18 125 18 30 0 27 -2 -20 -13z m3366 -11 c-4 -9 -9 -15 -11 -12
-3 3 -3 13 1 22 4 9 9 15 11 12 3 -3 3 -13 -1 -22z m-7873 -1 c-7 -2 -19 -2
-25 0 -7 3 -2 5 12 5 14 0 19 -2 13 -5z m7081 -9 c3 -8 2 -12 -4 -9 -6 3 -10
10 -10 16 0 14 7 11 14 -7z m-6500 -15 c111 -7 217 -20 310 -39 156 -33 297
-53 486 -70 292 -26 458 -62 755 -163 192 -65 276 -106 350 -170 16 -13 -26 4
-65 28 -45 26 -114 54 -265 104 -401 132 -577 169 -885 186 -251 14 -382 27
-540 55 -272 48 -343 62 -390 76 l-45 13 60 -5 c33 -2 136 -9 229 -15z m-1427
-11 c-3 -8 -6 -5 -6 6 -1 11 2 17 5 13 3 -3 4 -12 1 -19z m2201 15 c-10 -2
-26 -2 -35 0 -10 3 -2 5 17 5 19 0 27 -2 18 -5z m2757 -2 c-37 -15 -105 -23
-105 -12 0 9 37 16 100 19 22 1 23 0 5 -7z m995 -26 c141 -11 325 -15 589 -13
349 1 385 0 396 -15 10 -14 31 -17 106 -18 l94 -2 -98 -8 c-54 -4 -135 -18
-180 -30 -77 -22 -102 -23 -437 -23 -245 -1 -398 4 -495 14 -187 19 -443 18
-567 -3 -100 -17 -135 -21 -126 -12 10 10 157 35 253 44 l100 8 -85 2 c-47 0
-146 -8 -220 -19 -133 -20 -195 -33 -377 -83 -145 -40 -109 -13 50 37 220 69
311 90 557 129 58 10 249 6 440 -8z m2008 -60 c-3 -3 -9 2 -12 12 -6 14 -5 15
5 6 7 -7 10 -15 7 -18z m927 0 c-35 -16 -75 -19 -75 -6 0 6 19 12 43 14 23 2
47 4 52 4 6 1 -3 -5 -20 -12z m-85 1 c0 -9 -30 -14 -35 -6 -4 6 3 10 14 10 12
0 21 -2 21 -4z m156 -11 c-23 -17 -36 -19 -36 -6 0 11 18 19 40 20 11 0 10 -3
-4 -14z m-5639 -1 c-3 -3 -12 -4 -19 -1 -8 3 -5 6 6 6 11 1 17 -2 13 -5z m48
-24 c3 -6 -1 -7 -9 -4 -18 7 -21 14 -7 14 6 0 13 -4 16 -10z m4623 -65 c0 -17
-1 -17 -5 -2 -2 9 -8 15 -12 12 -5 -2 -6 8 -3 23 5 24 6 24 13 7 4 -11 7 -29
7 -40z m-2198 4 c206 -18 195 -28 -25 -22 -245 7 -332 -2 -810 -78 -163 -25
-421 -101 -505 -147 -82 -45 -213 -133 -333 -223 -116 -88 -145 -104 -133 -73
3 9 6 27 6 40 0 29 88 122 160 170 49 33 143 73 230 100 30 9 101 32 158 50
204 69 361 108 532 133 445 66 503 70 720 50z m2211 -65 c-5 -16 -10 -21 -10
-12 -1 18 10 51 15 45 2 -1 -1 -16 -5 -33z m-883 9 c-21 -2 -55 -2 -75 0 -21
2 -4 4 37 4 41 0 58 -2 38 -4z m-1018 -18 c52 0 277 3 500 6 223 3 376 4 340
2 -35 -2 -67 -8 -70 -13 -8 -13 -521 -30 -900 -31 -319 0 -373 -8 -194 -29
184 -21 989 -3 1032 23 14 10 132 -3 132 -13 0 -15 -85 -42 -189 -61 -125 -23
-236 -24 -681 -5 -626 26 -924 -6 -1341 -145 -119 -40 -292 -120 -409 -189
-73 -43 -297 -198 -305 -210 -3 -6 -13 -10 -21 -10 -29 0 12 54 88 116 117 97
413 283 593 372 161 79 395 147 615 176 167 23 200 24 470 17 135 -3 288 -6
340 -6z m-4795 -15 c121 -11 272 -28 335 -39 63 -11 196 -29 295 -41 514 -60
811 -114 1120 -205 137 -40 196 -63 323 -126 107 -52 135 -71 203 -138 43 -43
79 -84 79 -90 0 -7 -21 8 -47 32 -47 45 -155 127 -167 127 -4 0 -25 12 -47 26
-163 102 -436 179 -1036 289 -139 25 -488 63 -648 70 -79 4 -79 4 -20 -5 33
-5 134 -16 225 -25 91 -9 212 -22 270 -30 l105 -14 -90 5 c-49 3 -211 9 -360
14 -224 7 -293 13 -405 35 -74 14 -182 33 -240 42 -185 27 -203 32 -105 27 50
-3 113 -9 140 -14 72 -13 325 -33 355 -28 36 5 -177 38 -250 38 -34 0 -59 4
-56 9 3 4 -36 11 -86 15 -51 3 -97 11 -102 16 -6 6 -26 10 -45 11 -20 1 -47 5
-61 9 -46 15 85 11 315 -10z m1594 -26 c29 -8 51 -17 49 -19 -7 -7 -142 25
-152 36 -12 13 10 9 103 -17z m5185 -144 c24 -69 90 -264 145 -433 78 -240 99
-313 90 -325 -9 -15 -10 -15 -5 2 4 10 0 28 -7 40 -7 12 -19 48 -27 81 -7 33
-17 64 -22 69 -4 6 -8 19 -9 30 0 21 0 21 -10 1 -7 -15 -8 -11 -4 17 3 20 1
39 -4 42 -5 3 -12 22 -15 41 -4 19 -11 35 -16 35 -6 0 -10 11 -10 25 0 31 -20
76 -31 69 -5 -3 -9 1 -10 8 -2 52 -13 106 -25 129 -8 16 -14 36 -14 46 0 15
-2 16 -11 3 -9 -12 -10 -12 -5 3 3 10 3 30 0 44 -5 19 -9 22 -16 11 -7 -9 -8
-3 -4 20 3 18 1 32 -4 32 -6 0 -10 11 -10 24 0 13 -9 43 -20 67 -11 24 -19 53
-19 64 l0 20 9 -20 c5 -11 29 -76 54 -145z m-5094 116 c0 -3 -4 -8 -10 -11 -5
-3 -10 -1 -10 4 0 6 5 11 10 11 6 0 10 -2 10 -4z m-2440 -37 c23 -5 10 -6 -40
-2 -41 3 -81 9 -89 13 -17 9 80 1 129 -11z m2844 -71 c130 -76 209 -148 285
-255 37 -54 7 -37 -38 21 -75 97 -189 192 -306 255 -22 11 -33 21 -25 21 7 0
46 -19 84 -42z m-2274 -36 c171 -37 223 -45 445 -73 44 -5 143 -18 220 -28 77
-11 165 -22 195 -26 30 -3 93 -13 140 -20 187 -31 410 -65 490 -75 47 -6 99
-13 115 -15 23 -4 26 -2 13 5 -26 16 -121 37 -283 64 -136 23 -242 37 -625 81
-329 39 -396 48 -415 56 -15 7 -9 8 20 4 116 -15 615 -54 710 -55 144 -1 168
2 75 11 -52 4 -27 6 80 4 163 -3 257 -14 610 -70 264 -42 390 -83 517 -169 53
-36 40 -33 -52 15 -81 41 -210 88 -300 108 -56 12 -369 57 -455 65 l-55 5 50
-10 c329 -66 658 -185 808 -293 34 -24 76 -59 92 -77 l30 -32 -30 20 c-43 29
-116 65 -121 60 -3 -3 17 -18 43 -34 52 -32 205 -172 188 -172 -5 -1 -48 31
-93 69 -78 65 -236 153 -265 149 -7 -1 -23 2 -37 8 -14 5 -41 13 -60 17 -21 4
14 -18 88 -54 68 -33 151 -76 185 -97 76 -46 227 -163 227 -176 0 -5 -13 2
-29 15 -137 110 -316 210 -481 271 -163 60 -484 121 -950 181 -265 34 -366 49
-385 57 -24 11 82 4 245 -16 203 -24 314 -35 350 -34 35 1 35 1 -8 10 -45 9
-314 43 -827 104 -575 69 -687 86 -780 116 -49 15 -130 33 -179 38 -49 6 -91
12 -93 15 -3 2 31 7 74 11 43 3 87 8 98 10 67 12 242 -6 415 -43z m5160 19
c29 -5 -82 -9 -315 -10 -360 -1 -421 -6 -710 -50 -94 -14 -217 -48 -380 -103
-248 -84 -364 -133 -553 -232 -40 -21 -75 -36 -78 -33 -6 6 92 72 179 121 213
122 383 187 647 250 106 25 301 61 375 70 67 7 787 -4 835 -13z m449 -40 c15
-10 -16 -14 -171 -27 -79 -6 -263 4 -253 14 17 17 399 29 424 13z m-6311 -28
c-10 -2 -28 -2 -40 0 -13 2 -5 4 17 4 22 1 32 -1 23 -4z m6386 -22 c-19 -19
-237 -33 -393 -26 -294 13 -205 30 173 33 139 1 226 -2 220 -7z m-1344 -12
c-149 -15 -255 -22 -248 -15 8 9 161 23 253 23 l70 0 -75 -8z m-4190 -49 l55
-7 -66 -2 c-36 0 -95 2 -130 6 -58 7 -61 8 -29 14 19 4 53 4 75 1 22 -2 65 -8
95 -12z m-6 -51 c72 -7 161 -26 261 -54 144 -41 310 -68 550 -90 177 -16 697
-114 895 -168 133 -36 323 -114 421 -173 83 -49 205 -159 249 -224 27 -39 24
-38 -65 36 -100 83 -353 217 -522 277 -185 67 -584 151 -928 197 -239 32 -720
90 -840 101 -115 11 -369 51 -436 69 -21 6 -39 14 -39 19 0 12 193 29 275 24
39 -2 119 -9 179 -14z m5626 -159 c-47 -4 -94 -3 -105 1 -11 4 26 7 85 7 l105
-1 -85 -7z m-970 -30 c135 -6 306 -18 380 -27 74 -9 155 -16 180 -16 25 1 37
-1 28 -4 -45 -12 10 -33 87 -33 21 0 26 -3 18 -11 -13 -13 -604 -13 -753 1
-387 35 -770 -13 -1130 -144 -279 -100 -366 -140 -588 -268 -131 -76 -141 -77
-142 -17 0 30 20 49 120 116 195 130 531 268 820 336 71 17 422 65 510 70 123
7 237 6 470 -3z m1835 -10 c-11 -5 -31 -9 -45 -9 -23 0 -23 1 -5 9 11 5 31 9
45 9 23 0 23 -1 5 -9z m-6645 -56 c113 -14 260 -34 327 -45 68 -10 155 -19
195 -19 90 0 600 -44 761 -65 115 -15 296 -48 447 -80 107 -24 412 -127 500
-170 139 -68 238 -145 321 -248 54 -67 49 -74 -12 -16 -95 93 -146 116 -434
199 -376 108 -536 149 -680 174 -341 61 -401 68 -705 86 -102 6 -232 20 -290
30 -58 11 -204 33 -325 50 -234 33 -447 74 -480 93 -19 11 -18 12 10 15 16 2
38 10 49 18 14 9 35 12 66 9 25 -3 137 -17 250 -31z m5518 -1 c-16 -2 -40 -2
-55 0 -16 2 -3 4 27 4 30 0 43 -2 28 -4z m-375 -89 c317 -3 557 -10 557 -15 0
-5 -2 -9 -4 -9 -2 0 -28 -5 -57 -12 -38 -9 -198 -13 -544 -13 -650 -2 -842
-12 -1155 -65 -135 -22 -301 -54 -369 -70 -68 -17 -126 -29 -128 -26 -11 10
266 95 447 136 19 4 78 19 130 33 162 43 273 56 445 51 66 -2 371 -6 678 -10z
m-2667 -36 l29 -33 -32 29 c-31 28 -38 36 -30 36 2 0 16 -15 33 -32z m-2503
-23 c414 -41 684 -74 862 -104 93 -16 193 -32 220 -36 128 -17 492 -78 600
-101 183 -39 561 -171 543 -190 -2 -2 -38 9 -79 25 -108 42 -215 66 -484 110
-259 43 -514 76 -665 86 -140 9 -1189 143 -1232 156 -21 7 -38 18 -38 25 0 6
-7 14 -15 18 -8 3 -15 12 -15 21 0 20 12 20 303 -10z m6754 18 c-20 -2 -52 -2
-70 0 -17 2 0 4 38 4 39 0 53 -2 32 -4z m-1574 -40 c-62 -2 -165 -2 -230 0
-65 1 -14 3 112 3 127 0 180 -2 118 -3z m725 0 c-16 -2 -40 -2 -55 0 -16 2 -3
4 27 4 30 0 43 -2 28 -4z m-6863 -70 c-5 -15 -9 -32 -9 -37 -1 -5 -7 -10 -14
-12 -7 -1 -8 0 -2 3 6 3 6 11 -1 25 -8 15 -7 24 7 39 22 24 29 18 19 -18z
m5551 18 c-8 -12 -126 -28 -351 -46 -104 -9 -212 -20 -240 -25 -168 -32 -320
-73 -330 -91 -4 -5 -24 -17 -46 -26 -21 -8 -39 -19 -39 -23 0 -4 -8 -10 -17
-13 -10 -3 -45 -18 -78 -32 -33 -14 -123 -51 -200 -81 -77 -30 -173 -73 -214
-95 -40 -22 -75 -38 -77 -36 -2 2 49 43 113 91 119 89 257 163 383 206 143 48
621 162 730 173 76 8 371 7 366 -2z m1074 -42 c69 -14 216 -29 305 -30 44 -1
69 -4 55 -6 -14 -2 -72 -13 -130 -24 -100 -20 -147 -21 -950 -23 -788 -3 -969
3 -620 18 156 8 331 21 475 36 50 5 200 16 335 25 135 8 265 17 290 18 64 4
187 -3 240 -14z m-5755 -30 c189 -10 242 -19 109 -18 -140 0 -604 26 -611 33
-8 7 217 1 502 -15z m7368 -94 l7 -30 -14 25 c-7 14 -16 43 -19 65 l-7 40 14
-35 c7 -19 16 -48 19 -65z m-3843 70 c-14 -8 -32 -14 -40 -14 -8 0 -1 7 15 14
39 18 57 18 25 0z m-95 -45 c-27 -12 -43 -12 -25 0 8 5 22 9 30 9 10 0 8 -3
-5 -9z m2848 -47 c-23 -2 -64 -2 -90 0 -26 2 -7 3 42 3 50 0 71 -1 48 -3z
m180 -10 c-13 -2 -33 -2 -45 0 -13 2 -3 4 22 4 25 0 35 -2 23 -4z m-1658 -15
c36 -7 65 -16 65 -20 0 -5 -35 -8 -79 -8 -229 0 -525 -43 -791 -115 -91 -24
-230 -60 -310 -79 -163 -40 -264 -72 -428 -140 -62 -25 -116 -46 -119 -46 -4
0 6 14 23 31 l29 32 -29 -7 c-24 -6 -26 -5 -15 6 43 42 223 135 334 172 111
38 445 122 559 142 245 41 626 57 761 32z m2582 -20 c-3 -7 -5 -2 -5 12 0 14
2 19 5 13 2 -7 2 -19 0 -25z m-347 -5 c0 -5 -32 -9 -70 -10 -40 -1 -70 2 -70
7 0 6 31 10 70 10 39 0 70 -3 70 -7z m-1645 -23 c32 -5 -28 -7 -170 -8 -121 0
-245 3 -275 8 -36 5 24 7 170 8 124 0 248 -3 275 -8z m595 -96 c311 -18 426
-37 170 -29 -85 2 -227 9 -315 14 -88 5 -308 13 -488 17 -264 6 -330 5 -337
-6 -5 -9 -19 -11 -45 -6 -72 14 -21 21 193 26 288 7 479 3 822 -16z m953 -11
c-7 -2 -19 -2 -25 0 -7 3 -2 5 12 5 14 0 19 -2 13 -5z m-2235 -10 c-21 -2 -57
-2 -80 0 -24 2 -7 4 37 4 44 0 63 -2 43 -4z m685 0 c-62 -2 -165 -2 -230 0
-65 1 -14 3 112 3 127 0 180 -2 118 -3z m-2962 -20 c12 -16 12 -17 -1 -7 -8 6
-22 14 -30 17 -13 5 -12 6 1 6 9 1 23 -7 30 -16z m2074 7 c-33 -4 -85 -8 -115
-7 l-55 0 45 7 c25 4 77 7 115 7 l70 0 -60 -7z m1118 3 c-18 -2 -48 -2 -65 0
-18 2 -4 4 32 4 36 0 50 -2 33 -4z m-1325 -20 c-10 -2 -26 -2 -35 0 -10 3 -2
5 17 5 19 0 27 -2 18 -5z m-5626 -25 c-7 -7 -12 -8 -12 -2 0 14 12 26 19 19 2
-3 -1 -11 -7 -17z m5448 -8 c-129 -43 -484 -141 -507 -140 -36 2 210 83 347
114 36 8 83 19 105 24 52 13 91 14 55 2z m3158 -145 c-3 -3 -9 2 -12 12 -6 14
-5 15 5 6 7 -7 10 -15 7 -18z m-5752 -305 c277 -16 606 -66 633 -96 3 -4 -1
-5 -10 -2 -27 10 -171 37 -274 52 -119 17 -313 34 -520 45 -88 5 -121 9 -79
10 40 0 152 -4 250 -9z m-2083 -927 c-13 -2 -33 -2 -45 0 -13 2 -3 4 22 4 25
0 35 -2 23 -4z m152 -3 c3 -5 1 -10 -4 -10 -6 0 -11 5 -11 10 0 6 2 10 4 10 3
0 8 -4 11 -10z m7177 0 c34 -10 108 -65 97 -73 -20 -14 -75 -30 -157 -43 -53
-8 -119 -19 -146 -23 -54 -9 -84 -4 -104 16 -11 11 -10 18 5 43 39 67 200 109
305 80z m-7242 -40 c0 -29 -4 -40 -15 -40 -11 0 -15 11 -15 40 0 29 4 40 15
40 11 0 15 -11 15 -40z m2420 25 c260 -46 264 -171 5 -169 -44 1 -168 2 -276
2 -164 1 -198 4 -209 17 -8 10 -20 13 -34 9 -17 -6 -14 0 14 33 81 92 158 122
310 123 58 0 143 -7 190 -15z m-742 -31 c67 -22 112 -50 112 -69 0 -3 -21 -15
-46 -25 -72 -31 -250 -25 -346 11 -32 13 -42 43 -19 62 63 55 175 63 299 21z
m-1588 -15 c0 -14 -16 -11 -29 5 -10 12 -8 13 8 9 12 -3 21 -9 21 -14z m4945
-26 c50 -21 69 -33 67 -45 -1 -9 2 -19 8 -23 16 -10 12 -25 -8 -25 -10 0 -24
-6 -30 -12 -16 -16 -217 -20 -287 -6 -57 12 -117 38 -122 53 -4 12 83 72 123
85 55 18 173 5 249 -27z m-4272 11 c9 -3 17 -10 17 -15 0 -5 7 -9 15 -9 8 0
15 -7 15 -15 0 -8 5 -15 12 -15 6 0 3 -7 -8 -15 -25 -19 -116 -19 -224 0 -47
8 -86 15 -88 15 -2 0 0 5 4 11 4 7 0 9 -12 5 -11 -3 -25 -2 -33 3 -9 6 11 14
60 24 112 25 181 28 242 11z m-1342 -20 c51 -15 105 -46 121 -69 4 -5 8 -20 8
-31 0 -32 -64 -38 -252 -23 -139 11 -160 15 -169 31 -9 16 -4 25 24 52 19 18
50 37 68 43 51 16 139 15 200 -3z m8445 -39 c70 -20 103 -48 97 -79 -8 -39
-74 -53 -177 -37 -98 15 -190 43 -162 49 18 4 18 5 -5 23 -16 13 -19 19 -9 19
13 0 13 1 0 10 -22 14 -9 20 61 30 75 10 125 6 195 -15z m-1578 -15 c38 -14
43 -46 12 -72 -48 -42 -265 -69 -318 -39 -35 19 -62 44 -62 57 0 20 39 47 87
61 56 15 230 11 281 -7z m-5744 -49 c66 -23 84 -40 61 -57 -8 -6 -15 -16 -15
-22 0 -17 -64 -26 -175 -26 -107 -1 -185 16 -185 39 0 7 -5 15 -11 17 -20 7
12 46 51 63 49 22 196 14 274 -14z m2644 -6 c28 -9 58 -23 68 -32 15 -15 14
-18 -17 -35 l-34 -19 30 6 c136 29 304 33 413 10 93 -19 194 -61 223 -91 22
-24 22 -24 3 -39 -20 -15 -58 -20 -139 -16 -27 1 -90 -4 -139 -13 -49 -9 -146
-20 -215 -26 -107 -9 -138 -9 -201 5 -41 9 -95 20 -120 25 -83 18 -90 20 -90
35 0 19 9 23 91 46 39 11 78 27 88 36 15 16 15 16 -4 9 -11 -4 -54 -10 -96
-13 -62 -5 -81 -2 -102 12 -15 9 -27 23 -27 30 0 18 42 63 70 74 38 15 140 13
198 -4z m2512 -22 c128 -60 74 -161 -88 -165 -119 -3 -222 38 -222 89 1 59
104 107 210 98 35 -3 80 -13 100 -22z m1629 2 c101 -27 198 -105 175 -142 -28
-45 -153 -53 -274 -17 -93 27 -200 75 -200 89 0 21 61 63 106 74 59 14 133 12
193 -4z m-7275 -70 c83 -35 154 -112 139 -151 -6 -16 -7 -16 -14 2 -7 18 -8
17 -8 -3 -1 -12 -9 -26 -18 -31 -10 -5 -83 -12 -163 -16 -80 -3 -165 -10 -189
-15 -54 -11 -133 7 -160 36 -10 11 -22 33 -25 50 -6 26 -2 34 23 55 102 87
301 121 415 73z m1403 -32 c47 -24 57 -65 22 -84 -69 -37 -260 -60 -322 -40
-68 23 -70 66 -5 113 67 47 224 53 305 11z m1303 17 c85 -44 98 -112 23 -126
-49 -9 -235 3 -267 17 -33 16 -35 57 -3 87 46 43 182 55 247 22z m-870 -20 c0
-5 8 -10 18 -10 13 0 14 -2 3 -9 -9 -6 -10 -11 -2 -15 6 -4 16 -4 21 -1 16 10
11 -21 -5 -35 -9 -7 -14 -19 -11 -26 3 -8 0 -11 -8 -8 -7 3 -19 -2 -26 -11
-14 -16 -75 -22 -65 -5 3 5 0 7 -8 4 -17 -6 -43 21 -27 31 16 10 12 35 -6 35
-8 0 -12 5 -9 10 3 6 15 10 26 10 10 0 19 5 19 10 0 6 -5 10 -11 10 -5 0 -7 5
-4 10 3 6 26 10 51 10 24 0 44 -4 44 -10z m5081 -1 c53 -18 99 -57 99 -83 0
-35 -30 -66 -75 -76 -59 -14 -279 -12 -325 2 -99 31 -41 108 111 147 87 23
143 25 190 10z m1379 -7 c69 -5 133 -12 143 -16 21 -10 23 -28 2 -20 -8 4 -15
2 -15 -4 0 -5 8 -13 17 -16 11 -5 13 -10 7 -14 -6 -4 -13 -15 -17 -24 -5 -15
-20 -18 -100 -18 -52 0 -119 -5 -148 -11 -147 -28 -395 -28 -449 1 -23 12 -40
48 -32 68 6 18 57 43 117 58 53 14 232 12 475 -4z m-3950 -53 c161 -23 272
-60 317 -105 26 -26 26 -27 8 -40 -26 -19 -90 -18 -295 6 -96 11 -224 25 -285
31 -167 16 -177 18 -173 36 4 22 99 73 155 83 52 9 168 5 273 -11z m1716 -8
c54 -24 130 -91 102 -91 -8 0 -29 -7 -45 -15 -38 -19 -175 -22 -229 -6 -123
38 -134 74 -39 126 40 22 144 15 211 -14z m-4339 3 c-3 -3 -12 -4 -19 -1 -8 3
-5 6 6 6 11 1 17 -2 13 -5z m488 -38 c28 -7 79 -27 115 -44 36 -17 86 -38 113
-47 45 -16 107 -66 107 -86 0 -6 -21 -19 -47 -31 -42 -18 -58 -20 -157 -14
-115 7 -246 23 -280 33 -19 5 -18 7 6 28 14 12 58 32 97 44 39 12 71 23 71 24
0 1 -49 2 -109 2 -94 0 -112 3 -130 19 -21 19 -21 20 -3 39 44 43 131 57 217
33z m669 -42 c47 -16 126 -80 126 -102 0 -6 -11 -19 -25 -28 -24 -16 -31 -16
-103 -1 -42 9 -112 21 -156 26 -47 6 -85 16 -94 25 -14 14 -14 18 8 41 46 49
160 67 244 39z m2258 -45 c15 -8 26 -18 25 -24 -6 -16 -99 -35 -209 -42 -92
-5 -111 -4 -134 12 l-27 17 32 20 c17 11 55 24 84 28 71 12 196 5 229 -11z
m-868 -28 c92 -19 136 -40 136 -64 0 -6 -3 -8 -6 -4 -3 3 -24 -4 -45 -15 -32
-16 -73 -23 -207 -31 -239 -16 -413 -15 -446 2 -60 33 -4 99 107 127 74 19
333 10 461 -15z m1488 -7 c25 -8 53 -23 62 -33 15 -16 15 -19 -1 -34 -10 -8
-43 -28 -73 -44 -53 -27 -60 -28 -205 -28 -151 1 -211 11 -235 40 -31 37 52
95 161 114 72 13 234 5 291 -15z m-6270 -18 c95 -30 109 -52 63 -98 -28 -28
-61 -34 -235 -44 -110 -7 -235 7 -270 29 -52 32 -21 85 63 108 117 32 288 34
379 5z m1191 -6 c31 -15 46 -28 45 -38 -4 -25 -40 -62 -59 -62 -10 0 -21 -5
-24 -10 -7 -12 -51 -3 -82 16 -12 8 -33 14 -45 14 -27 1 -48 16 -66 48 -11 20
-10 22 8 22 11 0 20 6 20 14 0 20 25 25 95 22 36 -2 79 -13 108 -26z m6864 10
c31 -11 69 -32 84 -46 27 -26 27 -28 11 -52 -9 -13 -31 -31 -49 -38 -53 -23
-249 -16 -345 12 -9 3 -23 15 -32 28 -14 22 -14 26 5 50 46 59 220 83 326 46z
m-5797 1 c93 -12 143 -28 169 -52 22 -21 22 -22 4 -39 -35 -34 -197 -60 -373
-60 -153 0 -160 1 -186 24 -28 23 -28 24 -10 51 42 64 223 99 396 76z m-2958
-26 c39 -14 45 -20 46 -45 0 -17 -6 -31 -14 -34 -9 -3 -12 -11 -8 -18 5 -8 2
-9 -11 -4 -11 4 -25 0 -35 -9 -22 -19 -70 -25 -147 -18 -45 4 -63 10 -63 20 0
8 -4 12 -9 8 -14 -8 -22 11 -16 37 7 26 55 58 88 58 12 0 29 5 37 10 22 14 81
12 132 -5z m7708 0 c17 -9 30 -20 30 -26 0 -19 -94 -52 -162 -57 -53 -4 -73
-1 -94 13 l-26 17 22 23 c40 42 173 59 230 30z m-3038 -30 c20 -10 42 -29 49
-42 12 -23 11 -27 -10 -44 -55 -45 -244 -75 -416 -66 -130 7 -147 12 -143 41
4 28 122 90 220 116 93 25 244 23 300 -5z m-2301 5 c42 -12 69 -52 53 -78 -18
-28 -74 -41 -184 -41 -115 0 -144 10 -138 50 9 61 159 99 269 69z m5690 -12
c31 -10 69 -42 69 -57 -1 -16 -19 -33 -29 -27 -6 4 -11 3 -11 -2 0 -23 -162
-19 -256 7 -73 20 -62 58 26 88 40 14 148 10 201 -9z m1197 -16 c39 -20 53
-42 28 -42 -9 0 -16 5 -16 10 0 6 -5 10 -11 10 -6 0 -4 -9 5 -21 16 -23 12
-47 -12 -66 -21 -17 -179 -17 -212 0 -33 17 -40 71 -12 98 45 42 160 48 230
11z m-2998 7 c81 -13 175 -54 201 -88 l21 -26 -32 -26 c-18 -15 -49 -29 -73
-32 -23 -4 -82 -13 -132 -22 -150 -25 -339 -30 -415 -11 -68 17 -114 53 -108
85 5 27 92 77 166 95 132 33 269 42 372 25z m1005 -19 c4 -6 -10 -9 -34 -8
-22 1 -38 5 -35 10 7 11 62 10 69 -2z m-3475 -69 c51 -26 52 -57 3 -78 -49
-21 -255 -30 -306 -14 -63 21 -70 53 -20 86 56 37 256 41 323 6z m1199 -11
c130 -33 191 -69 178 -103 -10 -26 -159 -41 -265 -29 -122 15 -183 52 -167
103 16 50 123 63 254 29z m2322 -10 c51 -14 91 -47 87 -74 -4 -28 -111 -65
-190 -66 -111 0 -208 35 -208 76 0 29 46 64 95 73 54 11 158 6 216 -9z m-4025
-16 c51 -26 64 -48 41 -71 -16 -16 -38 -18 -178 -18 -131 0 -161 3 -169 15
-13 22 35 68 90 85 59 19 166 14 216 -11z m-2209 -19 c55 -5 61 -9 55 -40 -4
-22 -10 -25 -43 -25 -22 0 -39 5 -39 10 0 6 -20 10 -44 10 -26 0 -48 6 -56 15
-9 11 -9 15 -1 15 7 0 9 5 5 12 -5 7 -2 9 8 6 8 -4 21 -2 29 3 8 5 21 6 29 3
8 -3 34 -7 57 -9z m1631 0 c62 -19 113 -58 96 -75 -21 -21 -88 -29 -194 -24
-120 7 -180 19 -180 38 0 18 43 56 76 66 47 14 146 11 202 -5z m5220 -20 c47
-19 95 -69 90 -94 -2 -9 -20 -21 -40 -28 -43 -14 -360 -36 -431 -30 -43 4 -87
28 -87 48 0 15 53 70 84 86 82 44 297 54 384 18z m620 6 c19 -10 22 -18 17
-39 -3 -15 -13 -32 -22 -39 -46 -35 -263 -46 -323 -15 -19 9 -36 24 -38 32 -4
22 51 59 101 70 58 12 237 6 265 -9z m-6730 -7 c51 -36 3 -102 -80 -111 -46
-5 -161 19 -185 39 -19 16 -5 27 75 60 78 31 156 36 190 12z m7791 2 c-8 -8
-88 -10 -95 -3 -4 4 17 7 46 7 29 0 51 -2 49 -4z m-3966 -20 c39 -17 82 -61
72 -75 -3 -6 -30 -23 -58 -38 -45 -24 -67 -28 -162 -31 -128 -4 -165 5 -165
43 0 78 208 146 313 101z m4004 8 c-3 -3 -12 -4 -19 -1 -8 3 -5 6 6 6 11 1 17
-2 13 -5z m-7390 -30 c108 -30 115 -130 8 -119 -271 28 -304 34 -319 58 -9 13
-5 22 15 42 42 42 180 51 296 19z m4558 16 c68 -10 129 -40 140 -68 3 -8 -9
-19 -30 -28 -26 -11 -81 -14 -237 -13 -212 1 -259 6 -265 26 -9 25 105 67 221
82 86 12 93 12 171 1z m2209 -1 c29 -8 36 -13 25 -20 -12 -8 -12 -10 0 -18 11
-7 4 -11 -25 -17 -30 -5 -34 -9 -19 -14 18 -6 17 -7 -4 -13 -31 -8 -161 4
-162 14 -1 5 -2 14 -3 20 0 7 -10 15 -21 19 -16 6 -12 10 25 23 53 18 130 21
184 6z m606 -19 c-8 -5 -51 -9 -95 -9 -61 1 -72 3 -45 9 55 12 158 12 140 0z
m-5451 -26 c56 -16 116 -64 109 -87 -2 -6 -24 -22 -48 -34 -85 -42 -491 -58
-565 -22 -45 22 -41 58 10 86 37 20 194 65 270 77 50 7 167 -3 224 -20z m5518
20 c-3 -3 -12 -4 -19 -1 -8 3 -5 6 6 6 11 1 17 -2 13 -5z m-5020 -45 c32 -31
29 -45 -14 -60 -42 -14 -170 -7 -203 11 -22 12 -22 12 -3 32 51 51 173 60 220
17z m4960 5 c-3 -3 -12 -4 -19 -1 -8 3 -5 6 6 6 11 1 17 -2 13 -5z m-7977 -89
c82 -17 123 -36 144 -66 35 -50 -22 -67 -146 -45 -46 9 -130 20 -188 26 -58 7
-110 16 -116 21 -11 9 -12 44 -1 55 25 25 204 31 307 9z m4259 -8 c95 -33 78
-54 -47 -56 -92 -1 -154 39 -104 68 27 16 82 12 151 -12z m1132 -7 c20 -6 43
-18 50 -26 20 -24 -7 -39 -116 -64 -200 -46 -401 -63 -446 -40 -26 15 -24 45
5 68 55 43 417 87 507 62z m2404 -23 c111 -40 121 -58 43 -75 -180 -38 -368
-14 -368 47 0 54 204 71 325 28z m-9144 -33 c52 -31 46 -56 -21 -75 -85 -25
-191 -39 -298 -39 -109 0 -139 11 -128 48 8 23 54 43 156 66 36 8 74 17 85 20
47 12 172 -1 206 -20z m8571 -4 c64 -30 76 -45 54 -69 -30 -33 -147 -55 -296
-56 -150 0 -196 11 -206 51 -17 68 96 106 296 100 83 -3 115 -8 152 -26z
m-3221 -3 c24 -13 44 -30 44 -37 0 -18 -62 -38 -158 -50 -122 -15 -210 1 -247
45 -11 13 -11 18 3 32 22 22 74 31 203 32 98 1 116 -2 155 -22z m2510 13 c92
-26 66 -70 -53 -90 -97 -17 -427 -8 -482 13 -41 15 -67 53 -43 62 59 23 509
34 578 15z m-4911 -15 c30 -8 93 -24 140 -35 141 -34 164 -41 182 -57 22 -20
13 -39 -25 -53 -87 -31 -569 -19 -643 16 -50 24 -54 42 -15 74 37 31 92 50
176 60 97 12 127 11 185 -5z m1775 0 c71 -19 135 -58 135 -83 0 -34 -100 -53
-288 -54 -235 -1 -362 24 -375 73 -7 27 27 57 72 65 20 3 43 7 51 9 8 1 89 3
180 4 120 1 182 -3 225 -14z m-4094 -10 c39 -9 92 -24 116 -35 39 -17 44 -23
41 -46 -4 -32 -48 -52 -118 -53 -49 -1 -246 40 -276 58 -42 24 -56 40 -48 53
5 7 9 16 10 21 1 4 2 9 3 12 3 11 205 4 272 -10z m1362 -4 c68 -7 87 -19 83
-49 -7 -48 -140 -79 -286 -67 -83 6 -160 31 -175 55 -11 18 28 52 72 60 51 10
222 11 306 1z m456 -2 c17 -6 36 -19 41 -29 8 -15 4 -22 -24 -39 -26 -17 -50
-21 -113 -21 -78 0 -103 9 -103 37 0 26 75 59 141 62 14 1 40 -4 58 -10z
m3469 -51 c26 -8 32 -15 30 -31 -5 -35 -65 -49 -218 -50 -115 -2 -140 1 -163
16 -33 22 -34 32 -2 53 45 30 270 37 353 12z m-1813 -2 c18 -8 39 -24 45 -36
10 -19 9 -26 -7 -42 -38 -37 -237 -37 -284 1 -19 15 -20 20 -8 39 27 43 185
67 254 38z m2968 -81 c45 -16 47 -18 47 -56 0 -46 -8 -52 -123 -79 -46 -11
-110 -29 -143 -41 -82 -29 -330 -39 -386 -16 -31 13 -38 21 -38 45 0 57 105
122 250 153 106 24 317 20 393 -6z m-5766 4 c20 -8 24 -13 13 -17 -8 -3 -21
-11 -28 -19 -20 -20 -80 -16 -118 8 -19 11 -34 25 -34 30 0 13 133 11 167 -2z
m2414 0 c40 -14 69 -37 69 -56 0 -7 -7 -13 -15 -13 -8 0 -15 -4 -15 -9 0 -4
-20 -14 -44 -21 -50 -14 -168 1 -218 26 -37 19 -55 52 -32 61 62 24 200 30
255 12z m5744 -29 c22 0 26 -4 22 -19 -3 -15 0 -17 17 -13 21 5 21 5 -1 -15
-13 -11 -23 -25 -23 -32 0 -6 -10 -10 -22 -9 -13 0 -95 -23 -183 -53 -197 -66
-254 -70 -328 -24 -27 17 -47 38 -47 48 0 9 -5 16 -11 15 -6 -2 -13 10 -14 25
-3 22 0 27 13 26 9 -2 32 5 51 15 18 10 42 15 52 13 11 -3 25 0 32 6 11 11 50
16 134 17 18 0 34 3 36 8 3 4 50 5 106 2 84 -4 102 -2 107 10 5 13 7 12 18 -2
7 -10 26 -18 41 -18z m-4088 -3 c18 -11 4 -37 -21 -37 -28 -1 -140 -49 -196
-85 -112 -73 -171 -89 -301 -83 -111 6 -132 16 -127 62 3 28 11 35 78 68 64
32 143 60 225 81 31 8 329 3 342 -6z m2626 -56 c102 -40 140 -93 89 -123 -26
-15 -68 -17 -393 -16 l-364 2 -22 24 c-41 45 -25 91 44 127 15 8 106 11 305
10 270 -1 286 -2 341 -24z m-5510 8 c105 -15 137 -27 148 -56 13 -36 -3 -58
-58 -80 -42 -16 -79 -18 -299 -18 -276 0 -283 2 -281 57 3 42 41 64 154 88
100 21 231 25 336 9z m3665 -3 c45 -12 130 -55 110 -56 -4 0 -3 -11 2 -24 6
-16 5 -29 -3 -40 -24 -31 -107 -38 -500 -41 l-387 -3 -15 29 c-14 26 -14 30 7
49 33 30 112 50 298 76 195 26 410 30 488 10z m-5753 -6 c61 -6 126 -15 145
-20 19 -5 47 -12 61 -14 15 -3 30 -14 34 -23 9 -24 -40 -66 -66 -58 -11 4 -27
1 -35 -6 -24 -20 -180 -23 -332 -8 -109 10 -138 17 -153 32 -19 21 -19 61 -1
79 26 26 178 34 347 18z m8353 -12 c18 -15 15 -63 -5 -80 -59 -51 -200 -77
-311 -58 -74 12 -96 27 -107 72 -7 26 -4 28 49 43 131 38 338 51 374 23z
m-7134 -14 c80 -17 132 -39 140 -61 23 -58 -45 -76 -273 -74 -194 2 -201 3
-195 13 3 4 -2 8 -10 8 -17 0 -21 5 -30 42 -8 35 21 55 113 80 72 19 134 17
255 -8z m2836 -4 c50 -18 71 -40 68 -69 -6 -52 -34 -56 -353 -56 -159 0 -307
4 -327 8 -32 7 -37 11 -36 33 2 19 13 30 44 45 39 17 161 42 259 53 76 8 310
-2 345 -14z m-1090 -25 c54 -17 120 -58 120 -74 0 -13 -141 -31 -243 -31 -114
0 -298 17 -334 31 -69 26 -54 68 32 90 56 15 365 3 425 -16z"/>
<path d="M4990 6765 c7 -8 16 -15 21 -15 5 0 9 7 9 15 0 9 -9 15 -21 15 -18 0
-19 -2 -9 -15z"/>
<path d="M3368 6383 c7 -3 16 -2 19 1 4 3 -2 6 -13 5 -11 0 -14 -3 -6 -6z"/>
<path d="M3488 6373 c6 -2 18 -2 25 0 6 3 1 5 -13 5 -14 0 -19 -2 -12 -5z"/>
<path d="M3360 6340 c0 -5 7 -7 15 -4 8 4 15 8 15 10 0 2 -7 4 -15 4 -8 0 -15
-4 -15 -10z"/>
<path d="M3247 6283 c-4 -3 -7 -13 -7 -21 0 -12 3 -12 15 -2 8 7 15 16 15 21
0 11 -14 12 -23 2z"/>
<path d="M7472 6193 c-25 -94 -26 -103 -6 -118 11 -8 15 -14 9 -15 -15 0 -31
13 -38 30 -3 8 -6 0 -6 -18 -1 -20 3 -31 9 -27 6 4 7 -1 3 -10 -5 -16 -4 -16
26 0 18 9 34 22 37 28 7 19 117 21 151 4 24 -13 31 -13 47 -2 16 13 15 14 -14
13 -31 -1 -58 21 -40 32 10 6 -24 50 -39 50 -6 0 -11 -11 -11 -25 0 -22 -4
-25 -39 -25 -36 0 -39 2 -44 36 -3 20 -3 49 0 65 4 24 2 29 -13 29 -15 0 -23
-12 -32 -47z m38 -60 c0 -28 -15 -62 -23 -53 -2 3 -7 22 -11 43 -6 33 -5 37
14 37 15 0 20 -6 20 -27z"/>
<path d="M7700 6044 c0 -5 8 -19 18 -30 11 -11 24 -33 30 -49 10 -29 10 -29
11 -5 1 14 -12 40 -29 60 -16 19 -30 30 -30 24z"/>
<path d="M7406 6024 c-3 -9 -4 -20 0 -25 3 -5 -1 -9 -8 -9 -7 0 -19 -9 -25
-20 -11 -17 -10 -18 5 -13 23 8 52 44 52 66 0 21 -16 22 -24 1z"/>
<path d="M8090 5967 c0 -8 7 -21 16 -28 14 -11 15 -10 12 11 -3 26 -28 41 -28
17z"/>
<path d="M7759 5890 c-1 -16 -2 -35 -3 -42 -1 -6 5 -13 12 -15 8 -3 12 9 12
41 0 50 -19 64 -21 16z"/>
<path d="M2898 5903 c7 -3 16 -2 19 1 4 3 -2 6 -13 5 -11 0 -14 -3 -6 -6z"/>
<path d="M1800 5584 c0 -8 5 -12 10 -9 6 4 8 11 5 16 -9 14 -15 11 -15 -7z"/>
<path d="M7958 5433 c7 -3 16 -2 19 1 4 3 -2 6 -13 5 -11 0 -14 -3 -6 -6z"/>
<path d="M2433 4663 c9 -2 23 -2 30 0 6 3 -1 5 -18 5 -16 0 -22 -2 -12 -5z"/>
<path d="M2515 4649 c22 -4 51 -8 65 -7 l25 0 -25 8 c-14 4 -43 8 -65 8 l-40
0 40 -9z"/>
<path d="M8630 3320 c-31 -19 22 -23 138 -8 l117 15 -120 2 c-66 0 -127 -3
-135 -9z"/>
<path d="M8825 2880 c-41 -5 -45 -7 -25 -12 28 -8 240 -17 240 -11 0 31 -85
40 -215 23z"/>
<path d="M8675 2629 c55 -11 167 -10 140 1 -11 5 -56 8 -100 8 -68 0 -74 -1
-40 -9z"/>
<path d="M5202 6125 c-60 -50 -50 -56 105 -59 35 -1 39 16 11 48 -35 40 -77
44 -116 11z"/>
<path d="M3910 5919 c-13 -5 -32 -17 -42 -26 -16 -15 -16 -18 4 -57 52 -104
87 -125 149 -89 34 20 44 48 35 96 -12 63 -85 102 -146 76z"/>
<path d="M6611 5619 c-61 -57 -52 -150 19 -179 41 -17 84 2 121 53 32 45 35
63 14 91 -42 55 -114 72 -154 35z"/>
<path d="M7100 5222 c-75 -41 -101 -122 -55 -167 42 -43 116 -26 173 39 38 43
41 75 10 111 -31 35 -83 42 -128 17z"/>
<path d="M6438 4943 c7 -3 16 -2 19 1 4 3 -2 6 -13 5 -11 0 -14 -3 -6 -6z"/>
<path d="M1556 2903 c-636 -3 -616 -2 -616 -50 0 -43 17 -45 448 -33 224 6
709 11 1077 11 369 0 680 2 692 5 21 6 21 6 3 24 -16 16 -45 21 -182 29 -220
13 -701 18 -1422 14z"/>
<path d="M2250 1389 c0 -5 5 -7 10 -4 6 3 10 8 10 11 0 2 -4 4 -10 4 -5 0 -10
-5 -10 -11z"/>
<path d="M9160 660 c0 -5 5 -10 11 -10 5 0 7 5 4 10 -3 6 -8 10 -11 10 -2 0
-4 -4 -4 -10z"/>
<path d="M698 123 c7 -3 16 -2 19 1 4 3 -2 6 -13 5 -11 0 -14 -3 -6 -6z"/>
<path d="M10160 5749 c0 -5 5 -7 10 -4 6 3 10 8 10 11 0 2 -4 4 -10 4 -5 0
-10 -5 -10 -11z"/>
<path d="M9911 5704 c0 -11 3 -14 6 -6 3 7 2 16 -1 19 -3 4 -6 -2 -5 -13z"/>
</g>
</svg>
